<svg width="155" height="44" viewBox="0 0 155 44" fill="none" xmlns="http://www.w3.org/2000/svg">
<g clip-path="url(#clip0_4_5)">
<path d="M114.297 33.328C109.004 33.328 105.715 30.262 105.715 25.32C105.715 20.191 108.75 17 113.637 17H114.047C114.66 17 115.504 17.02 116.657 17.164V10.973H120.109V32.77C120.109 32.77 116.829 33.328 114.297 33.328ZM114.266 19.718C110.922 19.718 109.296 21.523 109.296 25.234C109.296 28.566 111.258 30.637 114.41 30.637C115.016 30.637 115.71 30.597 116.656 30.516V19.94C115.711 19.788 114.949 19.718 114.266 19.718ZM67.012 32.828L57.687 16.555L57.684 32.828H54.434V12.227H58.984L68.309 28.355L68.305 12.227H71.598V32.828H67.012ZM96.715 33.145C95.145 33.145 93.508 32.969 91.559 32.594L91.348 32.554V29.676L91.656 29.742C93.375 30.109 94.859 30.422 96.344 30.422C97.543 30.422 100.336 30.234 100.336 28.469C100.336 26.989 98.406 26.617 96.856 26.32L96.758 26.3C96.468 26.246 96.195 26.191 95.965 26.133C93.691 25.543 91.265 24.656 91.265 21.609C91.265 18.637 93.617 16.934 97.719 16.934C99.688 16.934 101.117 17.144 102.266 17.316L102.824 17.398V20.191L102.527 20.137C101.227 19.898 99.703 19.652 98.238 19.652C96.609 19.652 94.676 19.957 94.676 21.406C94.676 22.609 96.258 22.953 98.09 23.352C100.652 23.906 103.828 24.602 103.828 28.098C103.828 31.305 101.238 33.145 96.715 33.145ZM129.8 33.145C126.227 33.145 122.918 32.515 122.918 27.953C122.918 22.988 128.035 22.988 131.094 22.988C131.398 22.988 132.836 23.055 133.277 23.074C133.273 20.289 133.238 19.625 129.199 19.625C127.598 19.625 125.82 19.941 124.25 20.223L123.95 20.277V17.527L124.152 17.484C125.972 17.114 127.727 16.934 129.516 16.934C133.43 16.934 136.746 17.328 136.746 22.184V32.774L136.508 32.801C133.797 33.105 131.644 33.145 129.8 33.145ZM131.008 25.445C128.058 25.445 126.23 25.879 126.23 28.039C126.23 30.539 128.562 30.746 130.75 30.746C131.566 30.746 133.035 30.641 133.484 30.609V25.531C132.852 25.504 131.207 25.445 131.008 25.445ZM81.363 33.145C77.785 33.145 74.477 32.515 74.477 27.953C74.477 22.988 79.594 22.988 82.652 22.988C82.957 22.988 84.398 23.055 84.84 23.074C84.836 20.289 84.797 19.625 80.758 19.625C79.156 19.625 77.378 19.941 75.808 20.223L75.508 20.277V17.527L75.715 17.484C77.4784 17.1194 79.2743 16.9351 81.075 16.934C84.988 16.934 88.305 17.328 88.305 22.184V32.774L88.066 32.801C85.356 33.105 83.203 33.145 81.363 33.145ZM82.566 25.445C79.617 25.445 77.793 25.879 77.793 28.039C77.793 30.539 80.121 30.746 82.309 30.746C83.129 30.746 84.598 30.641 85.047 30.609V25.531C84.41 25.504 82.765 25.445 82.566 25.445Z" fill="white"/>
<mask id="mask0_4_5" style="mask-type:luminance" maskUnits="userSpaceOnUse" x="139" y="16" width="16" height="24">
<path d="M139 16H154.027V40H139V16Z" fill="white"/>
</mask>
<g mask="url(#mask0_4_5)">
<path d="M150.492 39.828V33.07C149.145 33.258 148.43 33.258 147.852 33.258C146.484 33.258 144.965 32.961 143.789 32.465C141.156 31.37 139.586 28.59 139.586 25.023C139.586 23.243 140.02 19.988 142.922 18.234C144.379 17.364 146.098 16.992 148.684 16.992C149.609 16.992 150.859 17.062 152.066 17.132L154.027 17.234V38.262L150.492 39.828ZM148.426 19.711C144.918 19.71 143.14 21.5 143.14 25.023C143.14 29.559 145.792 30.512 148.022 30.512C148.565 30.512 149.175 30.512 150.526 30.34V19.809C149.468 19.739 148.98 19.711 148.426 19.711Z" fill="white"/>
</g>
<mask id="mask1_4_5" style="mask-type:luminance" maskUnits="userSpaceOnUse" x="25" y="0" width="27" height="33">
<path d="M25 0.0159988H52V33H25V0.0159988Z" fill="white"/>
</mask>
<g mask="url(#mask1_4_5)">
<path d="M39.012 0.0159988L27.594 31.386C27.4528 31.7722 27.2057 32.1109 26.881 32.3633C26.5563 32.6157 26.1671 32.7715 25.758 32.813V32.828H37.828C38.773 32.828 39.582 32.227 39.883 31.387L51.305 0.0159988H39.012Z" fill="white"/>
</g>
<path d="M24.773 32.352C25.473 32.352 26.086 32.004 26.461 31.477C26.5 31.422 26.637 31.23 26.734 30.969L30.922 19.457L28.472 12.734C28.3293 12.3936 28.0981 12.0975 27.8025 11.8764C27.5069 11.6554 27.1575 11.5174 26.7906 11.4768C26.4237 11.4362 26.0526 11.4944 25.7158 11.6455C25.379 11.7966 25.0887 12.035 24.875 12.336C24.835 12.391 24.672 12.636 24.602 12.844L20.414 24.352L22.875 31.102C23.0346 31.473 23.2995 31.7891 23.6368 32.0113C23.9741 32.2334 24.3691 32.3519 24.773 32.352Z" fill="white"/>
<mask id="mask2_4_5" style="mask-type:luminance" maskUnits="userSpaceOnUse" x="-1" y="10" width="27" height="34">
<path d="M-1 10H26V43.797H-1V10Z" fill="white"/>
</mask>
<g mask="url(#mask2_4_5)">
<path d="M25.668 10.984H13.465C12.52 10.984 11.711 11.582 11.406 12.426L-0.012001 43.796H12.281L23.7 12.427C23.8481 12.0189 24.1144 11.6641 24.4649 11.4078C24.8154 11.1516 25.2342 11.0054 25.668 10.988V10.984Z" fill="white"/>
</g>
</g>
<defs>
<clipPath id="clip0_4_5">
<rect width="155" height="44" fill="white"/>
</clipPath>
</defs>
</svg>
